<svg xmlns="http://www.w3.org/2000/svg" width="780" height="220" viewBox="0 0 780 220" role="img" aria-label="智面 GrillMind">
  <defs>
    <linearGradient id="bg" x1="27" y1="17" x2="173" y2="192" gradientUnits="userSpaceOnUse">
      <stop stop-color="#fbfaf7"/>
      <stop offset="1" stop-color="#eaf2ee"/>
    </linearGradient>
    <linearGradient id="accent" x1="67" y1="83" x2="139" y2="143" gradientUnits="userSpaceOnUse">
      <stop stop-color="#5bb88a"/>
      <stop offset="1" stop-color="#2a5c45"/>
    </linearGradient>
    <filter id="shadow" x="11" y="19" width="176" height="173" color-interpolation-filters="sRGB" filterUnits="userSpaceOnUse">
      <feDropShadow dx="0" dy="8" flood-color="#1a1917" flood-opacity=".12" stdDeviation="9"/>
    </filter>
  </defs>
  <rect x="14" y="18" width="184" height="184" rx="42" fill="url(#bg)"/>
  <rect x="26" y="30" width="160" height="160" rx="35" fill="none" stroke="#d0ccc2" stroke-width="4"/>
  <g filter="url(#shadow)">
    <path fill="#fff" stroke="#2a5c45" stroke-linejoin="round" stroke-width="7" d="M72 67h72c17 0 31 14 31 31v33c0 17-14 31-31 31h-29l-20 16c-5 4-12 0-12-6v-10H72c-17 0-31-14-31-31V98c0-17 14-31 31-31Z"/>
  </g>
  <path fill="none" stroke="url(#accent)" stroke-linecap="round" stroke-linejoin="round" stroke-width="6" d="M92 119c-8-3-14-10-14-19 0-12 10-22 23-22 7 0 13 3 17 8 4-5 10-8 18-8 13 0 23 10 23 22 0 9-5 16-13 19"/>
  <path fill="none" stroke="#2a5c45" stroke-linecap="round" stroke-linejoin="round" stroke-width="6" d="M95 119c-10 3-17 11-17 21 0 14 14 25 31 25h19c17 0 31-11 31-25 0-10-7-18-17-21"/>
  <path fill="none" stroke="#4a8c6a" stroke-linecap="round" stroke-width="5" d="M118 87v74"/>
  <path fill="none" stroke="#4a8c6a" stroke-linecap="round" stroke-linejoin="round" stroke-width="5" d="M118 108h-17m17 17h22m-22 18h-15"/>
  <circle cx="100" cy="108" r="5" fill="#c0562a"/>
  <circle cx="142" cy="125" r="5" fill="#c0562a"/>
  <circle cx="102" cy="143" r="5" fill="#c0562a"/>
  <text x="230" y="96" fill="#1a1917" font-family="'Noto Serif SC', 'Songti SC', serif" font-size="54" font-weight="600">智面</text>
  <text x="231" y="146" fill="#2a5c45" font-family="'DM Mono', 'SFMono-Regular', monospace" font-size="36" font-weight="500">GrillMind</text>
  <text x="232" y="178" fill="#6b6760" font-family="'Noto Sans SC', 'PingFang SC', sans-serif" font-size="18" font-weight="300">AI 技术面试模拟器</text>
</svg>
